<svg xmlns="http://www.w3.org/2000/svg" viewBox="0 0 512 512" role="img" aria-labelledby="title desc">
  <title id="title">Synthetic Scenario Workflow</title>
  <desc id="desc">Square favicon mark representing a three-stage synthetic scenario workflow.</desc>
  <rect width="512" height="512" rx="120" fill="#EDF2F4"/>
  <rect x="22" y="22" width="468" height="468" rx="104" fill="none" stroke="rgba(141, 153, 174, 0.25)"/>
  <path d="M118 154h186c26 0 46 20 46 46s-20 46-46 46H212c-13 0-24 11-24 24s11 24 24 24h182" fill="none" stroke="#2B2D42" stroke-linecap="round" stroke-linejoin="round" stroke-width="30"/>
  <path d="M118 278h132c13 0 24 11 24 24s-11 24-24 24h-30c-26 0-46 20-46 46s20 46 46 46h174" fill="none" stroke="#2B2D42" stroke-linecap="round" stroke-linejoin="round" stroke-width="30"/>
  <circle cx="394" cy="154" r="23" fill="#EF233C"/>
  <circle cx="394" cy="246" r="23" fill="#EF233C"/>
  <circle cx="394" cy="372" r="23" fill="#EF233C"/>
</svg>
